#!OML:ASF H:\Punching\Project 1\Capture day 1\Session 1\female.ASF
:FULLY-SPECIFIED
:DEGREES
1927
root 0.300815 15.9409 7.25754 14.8931 -8.76025 -5.54052
lowerback 0.131904 -3.177 1.20346
upperback -5.63376 -4.12172 2.49035
thorax -5.81262 -2.05034 2.1265
lowerneck -9.37785 -11.198 -4.95948
upperneck 19.9696 -15.2499 2.44748
head 8.31159 -7.40509 0.0306568
rclavicle 2.69229e-014 3.97569e-015
rhumerus -26.5608 12.7744 -87.2586
rradius 61.5399
rwrist -5.66562
rhand -10.9772 -3.5227
rfingers 7.12502
rthumb 15.0425 -32.9562
lclavicle 2.69229e-014 3.97569e-015
lhumerus -14.5785 -12.9803 88.2104
lradius 51.1513
lwrist -7.94931
lhand -11.2015 16.4364
lfingers 7.12502
lthumb 14.8264 45.886
rfemur -31.7514 11.882 10.1003
rtibia 23.6652
rfoot 2.31228 -5.09789
rtoes -6.20477
lfemur -11.2737 -11.6907 -14.1344
ltibia 18.7902
lfoot -18.9925 21.9062
ltoes 2.26246
1928
root 0.35991 15.9494 7.23129 14.9572 -9.10101 -5.60447
lowerback 0.0943534 -3.14476 1.16915
upperback -5.63702 -4.08252 2.45636
thorax -5.79538 -2.03042 2.10594
lowerneck -9.44595 -11.1681 -4.95539
upperneck 20.0431 -15.2265 2.51278
head 8.35273 -7.38527 0.046428
rclavicle -7.6706e-014 1.70955e-014
rhumerus -26.7502 12.9574 -87.5911
rradius 61.4604
rwrist -5.27115
rhand -10.1607 -3.51081
rfingers 7.12502
rthumb 15.8289 -32.8837
lclavicle -7.6706e-014 1.70955e-014
lhumerus -14.6734 -13.1433 88.0509
lradius 52.4855
lwrist -7.46058
lhand -11.2995 16.3706
lfingers 7.12502
lthumb 14.7319 45.8271
rfemur -32.0082 11.8718 10.0096
rtibia 23.6796
rfoot 2.65793 -5.37841
rtoes -5.55509
lfemur -11.3877 -11.7588 -14.3221
ltibia 18.774
lfoot -18.9751 22.2409
ltoes 2.74972
1929
root 0.415995 15.9568 7.20623 15.013 -9.42852 -5.65626
lowerback 0.0548107 -3.12082 1.1105
upperback -5.64786 -4.05487 2.42913
thorax -5.78255 -2.01488 2.10672
lowerneck -9.50493 -11.1289 -4.94623
upperneck 20.1217 -15.1884 2.56269
head 8.39173 -7.35982 0.0588369
rclavicle 8.49929e-014 2.0276e-014
rhumerus -26.9622 13.109 -87.9141
rradius 61.313
rwrist -4.93792
rhand -9.32801 -3.54486
rfingers 7.12502
rthumb 16.6307 -32.8523
lclavicle 8.49929e-014 2.0276e-014
lhumerus -14.8505 -13.2689 87.9074
lradius 53.7941
lwrist -6.92511
lhand -11.4184 16.3271
lfingers 7.12502
lthumb 14.6174 45.792
rfemur -32.2185 11.8755 9.92338
rtibia 23.7147
rfoot 2.74442 -5.66427
rtoes -4.86835
lfemur -11.509 -11.8304 -14.5085
ltibia 18.7885
lfoot -18.9781 22.5566
ltoes 3.23164
1930
root 0.469247 15.9626 7.1822 15.0556 -9.73678 -5.69963
lowerback 0.0191114 -3.10433 1.03577
upperback -5.6638 -4.03723 2.40854
thorax -5.7755 -2.00331 2.12431
lowerneck -9.55534 -11.084 -4.93508
upperneck 20.204 -15.1414 2.60191
head 8.42905 -7.33117 0.069143
rclavicle 2.03382e-014 -1.43125e-014
rhumerus -27.1928 13.2205 -88.2243
rradius 61.0927
rwrist -4.66518
rhand -8.50439 -3.62542
rfingers 7.12502
rthumb 17.4235 -32.8645
lclavicle 2.03382e-014 -1.43125e-014
lhumerus -15.0992 -13.3724 87.7823
lradius 55.0626
lwrist -6.35171
lhand -11.5608 16.3025
lfingers 7.12502
lthumb 14.4802 45.7773
rfemur -32.3696 11.8844 9.85001
rtibia 23.7655
rfoot 2.53252 -5.93892
rtoes -4.19665
lfemur -11.6368 -11.9005 -14.6894
ltibia 18.8419
lfoot -19.0023 22.8424
ltoes 3.69678
1931
root 0.519962 15.9669 7.15937 15.0784 -10.0231 -5.74109
lowerback -0.00990653 -3.09492 0.957878
upperback -5.6776 -4.02873 2.39366
thorax -5.76922 -1.99596 2.15035
lowerneck -9.60694 -11.0337 -4.91395
upperneck 20.2868 -15.0858 2.62825
head 8.46454 -7.29897 0.0749764
rclavicle -1.63252e-014 6.75868e-015
rhumerus -27.4325 13.2854 -88.5189
rradius 60.7942
rwrist -4.44228
rhand -7.72433 -3.74707
rfingers 7.12502
rthumb 18.1741 -32.918
lclavicle -1.63252e-014 6.75868e-015
lhumerus -15.4023 -13.4534 87.672
lradius 56.2749
lwrist -5.75709
lhand -11.7185 16.2961
lfingers 7.12502
lthumb 14.3282 45.7817
rfemur -32.4444 11.8884 9.8015
rtibia 23.8255
rfoot 2.01108 -6.18403
rtoes -3.60243
lfemur -11.7652 -11.9695 -14.861
ltibia 18.9413
lfoot -19.0505 23.0978
ltoes 4.1322
1932
root 0.568284 15.97 7.13749 15.0831 -10.2864 -5.79119
lowerback -0.0298208 -3.08942 0.890029
upperback -5.68738 -4.02468 2.3843
thorax -5.76412 -1.99112 2.17718
lowerneck -9.66398 -10.9822 -4.88214
upperneck 20.3707 -15.0284 2.64589
head 8.49971 -7.26584 0.0764514
rclavicle 5.95112e-015 -1.98785e-014
rhumerus -27.6766 13.2923 -88.7965
rradius 60.4129
rwrist -4.25638
rhand -6.98259 -3.91642
rfingers 7.12502
rthumb 18.8876 -33.0194
lclavicle 5.95112e-015 -1.98785e-014
lhumerus -15.7506 -13.5311 87.5788
lradius 57.4139
lwrist -5.14961
lhand -11.8981 16.3074
lfingers 7.12502
lthumb 14.1552 45.8052
rfemur -32.4387 11.8865 9.78957
rtibia 23.8871
rfoot 1.20742 -6.40947
rtoes -3.14296
lfemur -11.8983 -12.028 -15.0125
ltibia 19.0919
lfoot -19.1217 23.3177
ltoes 4.53282
1933
root 0.614358 15.972 7.11646 15.0712 -10.529 -5.85792
lowerback -0.0382582 -3.08595 0.841609
upperback -5.69413 -4.02213 2.38223
thorax -5.76323 -1.98771 2.20151
lowerneck -9.719 -10.9317 -4.84775
upperneck 20.4507 -14.9724 2.66223
head 8.53298 -7.2334 0.0772862
rclavicle 1.33186e-014 -1.78906e-014
rhumerus -27.9288 13.2399 -89.0519
rradius 59.9504
rwrist -4.09018
rhand -6.29216 -4.11858
rfingers 7.12502
rthumb 19.5515 -33.1555
lclavicle 1.33186e-014 -1.78906e-014
lhumerus -16.1405 -13.5999 87.503
lradius 58.4691
lwrist -4.54534
lhand -12.0883 16.3337
lfingers 7.12502
lthumb 13.9719 45.8442
rfemur -32.3514 11.8678 9.82759
rtibia 23.9473
rfoot 0.185727 -6.62612
rtoes -2.87518
lfemur -12.0342 -12.0697 -15.1377
ltibia 19.291
lfoot -19.2139 23.5042
ltoes 4.89175
1934
root 0.658342 15.9732 7.09629 15.0447 -10.7514 -5.94575
lowerback -0.0345739 -3.08324 0.81831
upperback -5.69941 -4.01913 2.38839
thorax -5.76896 -1.98499 2.22116
lowerneck -9.76729 -10.8829 -4.81296
upperneck 20.525 -14.9191 2.67899
head 8.56328 -7.20241 0.0785183
rclavicle 4.27636e-014 -2.62396e-014
rhumerus -28.1926 13.1245 -89.2798
rradius 59.4112
rwrist -3.92547
rhand -5.64315 -4.34233
rfingers 7.12502
rthumb 20.1754 -33.3146
lclavicle 4.27636e-014 -2.62396e-014
lhumerus -16.5724 -13.6599 87.4474
lradius 59.4317
lwrist -3.95072
lhand -12.2898 16.362
lfingers 7.12502
lthumb 13.7777 45.8858
rfemur -32.1894 11.8238 9.92219
rtibia 24.0131
rfoot -0.975495 -6.84892
rtoes -2.81629
lfemur -12.1667 -12.0891 -15.2337
ltibia 19.5232
lfoot -19.3174 23.657
ltoes 5.2118
1935
root 0.700301 15.9739 7.07682 15.0075 -10.9566 -6.04859
lowerback -0.0209989 -3.08184 0.812152
upperback -5.70604 -4.01672 2.40267
thorax -5.7824 -1.9831 2.24048
lowerneck -9.8016 -10.8372 -4.78473
upperneck 20.5893 -14.87 2.70109
head 8.58886 -7.17383 0.0830988
rclavicle 1.63376e-014 8.74653e-015
rhumerus -28.4743 12.948 -89.4769
rradius 58.8027
rwrist -3.74547
rhand -5.03823 -4.56445
rfingers 7.12502
rthumb 20.7567 -33.4743
lclavicle 1.63376e-014 8.74653e-015
lhumerus -17.0476 -13.7059 87.4123
lradius 60.2986
lwrist -3.37215
lhand -12.4919 16.3926
lfingers 7.12502
lthumb 13.583 45.9295
rfemur -31.9621 11.7565 10.0624
rtibia 24.0819
rfoot -2.18378 -7.09639
rtoes -2.94719
lfemur -12.2998 -12.0848 -15.3073
ltibia 19.786
lfoot -19.4288 23.7802
ltoes 5.49125
1936
root 0.740432 15.974 7.05762 14.9472 -11.1388 -6.12925
lowerback 0.013984 -3.08579 0.788419
upperback -5.71241 -4.02173 2.41407
thorax -5.80659 -1.98396 2.26831
lowerneck -9.83943 -10.7922 -4.73284
upperneck 20.649 -14.822 2.70643
head 8.61025 -7.14565 0.0788316
rclavicle -1.07816e-013 -3.18055e-015
rhumerus -28.7678 12.7075 -89.6413
rradius 58.125
rwrist -3.55166
rhand -4.50633 -4.7584
rfingers 7.12502
rthumb 21.2677 -33.6115
lclavicle -1.07816e-013 -3.18055e-015
lhumerus -17.5736 -13.7039 87.4046
lradius 61.0828
lwrist -2.84076
lhand -12.6715 16.4149
lfingers 7.12502
lthumb 13.4099 45.9632
rfemur -31.6681 11.647 10.2092
rtibia 24.1562
rfoot -3.36927 -7.37114
rtoes -3.2137
lfemur -12.4286 -12.0604 -15.3997
ltibia 20.0735
lfoot -19.5395 23.8655
ltoes 5.73257
1937
root 0.778675 15.9734 7.03926 14.8831 -11.3036 -6.23867
lowerback 0.0479862 -3.08855 0.800241
upperback -5.7165 -4.02359 2.43424
thorax -5.82979 -1.98476 2.28522
lowerneck -9.86522 -10.7523 -4.68602
upperneck 20.6961 -14.7816 2.71964
head 8.62656 -7.12117 0.0780229
rclavicle 1.29707e-014 9.93923e-015
rhumerus -29.0739 12.4057 -89.7696
rradius 57.3912
rwrist -3.33668
rhand -4.05582 -4.93328
rfingers 7.12502
rthumb 21.7004 -33.737
lclavicle 1.29707e-014 9.93923e-015
lhumerus -18.1321 -13.693 87.4122
lradius 61.7653
lwrist -2.3457
lhand -12.8206 16.4408
lfingers 7.12502
lthumb 13.2662 45.9986
rfemur -31.3196 11.5233 10.409
rtibia 24.2315
rfoot -4.48646 -7.65323
rtoes -3.552
lfemur -12.5587 -12.0249 -15.4544
ltibia 20.3874
lfoot -19.6648 23.9337
ltoes 5.95784
